<svg xmlns="http://www.w3.org/2000/svg" viewBox="0 0 100 100" width="100" height="100">
  <defs>
    <linearGradient id="loveGrad" x1="0%" y1="0%" x2="100%" y2="100%">
      <stop offset="0%" style="stop-color:#FF6B9D"/>
      <stop offset="50%" style="stop-color:#E91E63"/>
      <stop offset="100%" style="stop-color:#C2185B"/>
    </linearGradient>
  </defs>
  <!-- Double hearts -->
  <path d="M30 35 C25 25, 15 25, 15 35 C15 50, 30 60, 30 60 C30 60, 45 50, 45 35 C45 25, 35 25, 30 35" fill="url(#loveGrad)" opacity="0.8"/>
  <path d="M70 40 C65 30, 55 30, 55 40 C55 55, 70 65, 70 65 C70 65, 85 55, 85 40 C85 30, 75 30, 70 40" fill="url(#loveGrad)"/>
  <!-- Sparkles -->
  <circle cx="25" cy="20" r="2" fill="#FFD700"/>
  <circle cx="80" cy="25" r="2" fill="#FFD700"/>
  <circle cx="50" cy="75" r="2" fill="#FFD700"/>
  <polygon points="90,70 92,75 97,75 93,78 95,83 90,80 85,83 87,78 83,75 88,75" fill="#FFD700"/>
</svg>
