<svg xmlns="http://www.w3.org/2000/svg" viewBox="0 0 100 100" width="100" height="100">
  <defs>
    <linearGradient id="envelopeGrad" x1="0%" y1="0%" x2="100%" y2="100%">
      <stop offset="0%" style="stop-color:#FFCDD2"/>
      <stop offset="100%" style="stop-color:#F8BBD0"/>
    </linearGradient>
  </defs>
  <!-- Envelope body -->
  <rect x="15" y="30" width="70" height="50" rx="3" fill="url(#envelopeGrad)" stroke="#E91E63" stroke-width="2"/>
  <!-- Envelope flap -->
  <polygon points="15,30 50,55 85,30" fill="#FFE4E9" stroke="#E91E63" stroke-width="2"/>
  <!-- Heart seal -->
  <path d="M50 20 C47 15, 42 15, 42 20 C42 26, 50 32, 50 32 C50 32, 58 26, 58 20 C58 15, 53 15, 50 20" fill="#E91E63"/>
  <!-- Little hearts floating -->
  <path d="M25 70 C24 68, 22 68, 22 70 C22 72, 25 74, 25 74 C25 74, 28 72, 28 70 C28 68, 26 68, 25 70" fill="#FF69B4" opacity="0.7"/>
  <path d="M75 65 C74 63, 72 63, 72 65 C72 67, 75 69, 75 69 C75 69, 78 67, 78 65 C78 63, 76 63, 75 65" fill="#FF69B4" opacity="0.7"/>
</svg>
